<svg width="117" height="164" viewBox="0 0 117 164" fill="none" xmlns="http://www.w3.org/2000/svg">
<path opacity="0.1" d="M136.729 163.271H2.03125V130.264L47.3535 84.4336C60.3027 70.8919 68.7663 61.6667 72.7441 56.7578C76.722 51.7643 79.4727 47.4902 80.9961 43.9355C82.6042 40.3809 83.4082 36.6569 83.4082 32.7637C83.4082 27.9395 81.8424 24.1309 78.7109 21.3379C75.5794 18.5449 71.1784 17.1484 65.5078 17.1484C59.668 17.1484 53.7435 18.8411 47.7344 22.2266C41.8099 25.5273 35.0814 30.4362 27.5488 36.9531L0 4.70703C9.5638 -3.84114 17.6042 -9.9349 24.1211 -13.5742C30.638 -17.2982 37.7051 -20.1335 45.3223 -22.0801C53.0241 -24.0267 61.6569 -25 71.2207 -25C83.2389 -25 93.9453 -22.8841 103.34 -18.6523C112.819 -14.4206 120.14 -8.36914 125.303 -0.498047C130.55 7.28841 133.174 16.0482 133.174 25.7812C133.174 33.0599 132.243 39.7884 130.381 45.9668C128.604 52.1452 125.811 58.2389 122.002 64.248C118.193 70.1725 113.115 76.4355 106.768 83.0371C100.505 89.6387 87.0898 102.165 66.5234 120.615V121.885H136.729V163.271Z" fill="black"/>
</svg>