<svg width="113" height="166" viewBox="0 0 113 166" fill="none" xmlns="http://www.w3.org/2000/svg">
<path opacity="0.05" d="M127.334 17.9102C127.334 29.4206 123.822 39.3229 116.797 47.6172C109.772 55.8268 99.6159 61.7936 86.3281 65.5176V66.2793C117.305 70.1725 132.793 84.8145 132.793 110.205C132.793 127.471 125.938 141.055 112.227 150.957C98.6003 160.859 79.6419 165.811 55.3516 165.811C45.3646 165.811 36.097 165.091 27.5488 163.652C19.0853 162.214 9.90234 159.59 0 155.781V114.141C8.125 118.288 16.377 121.377 24.7559 123.408C33.2194 125.355 41.0059 126.328 48.1152 126.328C59.1178 126.328 67.1159 124.805 72.1094 121.758C77.1875 118.626 79.7266 113.76 79.7266 107.158C79.7266 102.08 78.4147 98.1869 75.791 95.4785C73.1673 92.6855 68.9355 90.612 63.0957 89.2578C57.2559 87.819 49.6387 87.0996 40.2441 87.0996H28.8184V49.3945H40.498C65.9733 49.3945 78.7109 42.8776 78.7109 29.8438C78.7109 24.9349 76.8066 21.2956 72.998 18.9258C69.2741 16.556 64.2383 15.3711 57.8906 15.3711C46.0417 15.3711 33.7695 19.349 21.0742 27.3047L0.253906 -6.21094C10.0716 -12.9818 20.1009 -17.806 30.3418 -20.6836C40.6673 -23.5612 52.474 -25 65.7617 -25C84.974 -25 100.039 -21.1914 110.957 -13.5742C121.875 -5.95703 127.334 4.53776 127.334 17.9102Z" fill="black"/>
</svg>
